<svg data-v-423bf9ae="" xmlns="http://www.w3.org/2000/svg" viewBox="0 0 94.08637056929601 60" class="font"><!----><!----><!----><g data-v-423bf9ae="" id="8488aacd-9f04-4efd-baec-e58b3e3d7bd9" fill="white" transform="matrix(6.644517767172949,0,0,6.644517767172949,0.797343901305446,-41.12956488216575)"><path d="M1.05 15.05L1.10 14.32L1.10 14.32Q1.28 14.35 1.44 14.38L1.44 14.38L1.44 14.38Q1.58 14.40 1.72 14.41L1.72 14.41L1.72 14.41Q1.87 14.42 1.96 14.42L1.96 14.42L1.96 14.42Q2.11 14.42 2.23 14.36L2.23 14.36L2.23 14.36Q2.36 14.30 2.48 14.16L2.48 14.16L2.48 14.16Q2.61 14.02 2.74 13.79L2.74 13.79L2.74 13.79Q2.88 13.56 3.03 13.23L3.03 13.23L3.29 12.54L3.29 12.54Q2.67 11.20 2.16 10.12L2.16 10.12L2.16 10.12Q1.94 9.66 1.73 9.21L1.73 9.21L1.73 9.21Q1.52 8.76 1.35 8.37L1.35 8.37L1.35 8.37Q1.18 7.98 1.07 7.73L1.07 7.73L1.07 7.73Q0.95 7.49 0.92 7.43L0.92 7.43L0.92 7.43Q0.85 7.27 0.79 7.17L0.79 7.17L0.79 7.17Q0.72 7.08 0.65 7.03L0.65 7.03L0.65 7.03Q0.57 6.98 0.45 6.97L0.45 6.97L0.45 6.97Q0.33 6.95 0.13 6.95L0.13 6.95L-0.12 6.95L-0.12 6.34L-0.12 6.34Q0.27 6.34 0.65 6.35L0.65 6.35L0.65 6.35Q1.03 6.36 1.37 6.36L1.37 6.36L1.37 6.36Q1.69 6.36 2.10 6.35L2.10 6.35L2.10 6.35Q2.50 6.34 3.01 6.34L3.01 6.34L3.01 6.95L2.41 6.95L2.41 6.95Q2.23 6.95 2.12 7.02L2.12 7.02L2.12 7.02Q2.02 7.08 2.01 7.25L2.01 7.25L2.01 7.25Q2.02 7.38 2.07 7.55L2.07 7.55L2.07 7.55Q2.13 7.72 2.20 7.91L2.20 7.91L2.20 7.91Q2.28 8.09 2.37 8.27L2.37 8.27L2.37 8.27Q2.45 8.45 2.53 8.61L2.53 8.61L3.83 11.40L3.83 11.40Q4.11 10.71 4.38 10.04L4.38 10.04L4.38 10.04Q4.50 9.75 4.62 9.45L4.62 9.45L4.62 9.45Q4.74 9.15 4.87 8.84L4.87 8.84L4.87 8.84Q4.99 8.54 5.10 8.25L5.10 8.25L5.10 8.25Q5.22 7.96 5.31 7.73L5.31 7.73L5.31 7.73Q5.37 7.58 5.41 7.47L5.41 7.47L5.41 7.47Q5.44 7.36 5.45 7.27L5.45 7.27L5.45 7.27Q5.44 7.16 5.40 7.10L5.40 7.10L5.40 7.10Q5.37 7.04 5.26 7.01L5.26 7.01L5.26 7.01Q5.16 6.97 4.97 6.96L4.97 6.96L4.97 6.96Q4.78 6.95 4.47 6.95L4.47 6.95L4.47 6.34L4.47 6.34Q4.83 6.34 5.16 6.35L5.16 6.35L5.16 6.35Q5.49 6.36 5.82 6.36L5.82 6.36L5.82 6.36Q6.18 6.36 6.56 6.35L6.56 6.35L6.56 6.35Q6.95 6.34 7.34 6.34L7.34 6.34L7.34 6.95L7.34 6.95Q7.05 6.95 6.88 6.97L6.88 6.97L6.88 6.97Q6.71 6.99 6.61 7.06L6.61 7.06L6.61 7.06Q6.51 7.14 6.44 7.27L6.44 7.27L6.44 7.27Q6.37 7.40 6.27 7.63L6.27 7.63L3.91 13.19L3.91 13.19Q3.66 13.77 3.45 14.16L3.45 14.16L3.45 14.16Q3.23 14.55 3.00 14.79L3.00 14.79L3.00 14.79Q2.78 15.03 2.53 15.12L2.53 15.12L2.53 15.12Q2.28 15.22 1.96 15.22L1.96 15.22L1.96 15.22Q1.81 15.22 1.65 15.20L1.65 15.20L1.65 15.20Q1.50 15.17 1.36 15.13L1.36 15.13L1.36 15.13Q1.20 15.10 1.05 15.05L1.05 15.05ZM10.77 6.19L10.77 6.19L10.77 6.19Q11.49 6.19 12.09 6.41L12.09 6.41L12.09 6.41Q12.69 6.64 13.13 7.06L13.13 7.06L13.13 7.06Q13.56 7.49 13.80 8.09L13.80 8.09L13.80 8.09Q14.04 8.69 14.04 9.41L14.04 9.41L14.04 9.41Q14.04 10.10 13.80 10.69L13.80 10.69L13.80 10.69Q13.56 11.29 13.13 11.72L13.13 11.72L13.13 11.72Q12.70 12.14 12.10 12.37L12.10 12.37L12.10 12.37Q11.50 12.61 10.77 12.61L10.77 12.61L10.77 12.61Q10.05 12.61 9.45 12.38L9.45 12.38L9.45 12.38Q8.85 12.15 8.42 11.72L8.42 11.72L8.42 11.72Q7.99 11.29 7.76 10.69L7.76 10.69L7.76 10.69Q7.52 10.10 7.52 9.41L7.52 9.41L7.52 9.41Q7.52 8.69 7.76 8.09L7.76 8.09L7.76 8.09Q8.00 7.49 8.43 7.06L8.43 7.06L8.43 7.06Q8.86 6.64 9.46 6.41L9.46 6.41L9.46 6.41Q10.06 6.19 10.77 6.19ZM10.77 6.90L10.77 6.90L10.77 6.90Q10.29 6.90 9.91 7.08L9.91 7.08L9.91 7.08Q9.53 7.25 9.26 7.57L9.26 7.57L9.26 7.57Q8.99 7.90 8.85 8.36L8.85 8.36L8.85 8.36Q8.70 8.83 8.70 9.40L8.70 9.40L8.70 9.40Q8.70 9.93 8.85 10.40L8.85 10.40L8.85 10.40Q9.00 10.87 9.27 11.20L9.27 11.20L9.27 11.20Q9.54 11.53 9.92 11.71L9.92 11.71L9.92 11.71Q10.30 11.89 10.77 11.89L10.77 11.89L10.77 11.89Q11.25 11.89 11.63 11.71L11.63 11.71L11.63 11.71Q12.01 11.53 12.28 11.20L12.28 11.20L12.28 11.20Q12.56 10.87 12.70 10.40L12.70 10.40L12.70 10.40Q12.85 9.93 12.85 9.40L12.85 9.40L12.85 9.40Q12.85 8.84 12.70 8.37L12.70 8.37L12.70 8.37Q12.56 7.90 12.29 7.57L12.29 7.57L12.29 7.57Q12.02 7.25 11.63 7.08L11.63 7.08L11.63 7.08Q11.25 6.90 10.77 6.90Z"></path></g><!----><!----></svg>